<mxfile host="app.diagrams.net" modified="2023-05-15T14:13:52.322Z" agent="Mozilla/5.0 (Windows NT 10.0; Win64; x64) AppleWebKit/537.36 (KHTML, like Gecko) Chrome/113.0.0.0 Safari/537.36" etag="bVehI-2eorIE2Sbdy2og" version="21.2.9" type="device">
  <diagram id="C5RBs43oDa-KdzZeNtuy" name="Page-1">
    <mxGraphModel dx="1877" dy="1710" grid="1" gridSize="10" guides="1" tooltips="1" connect="1" arrows="1" fold="1" page="1" pageScale="1" pageWidth="827" pageHeight="1169" math="0" shadow="0">
      <root>
        <mxCell id="WIyWlLk6GJQsqaUBKTNV-0" />
        <mxCell id="WIyWlLk6GJQsqaUBKTNV-1" parent="WIyWlLk6GJQsqaUBKTNV-0" />
        <mxCell id="zkfFHV4jXpPFQw0GAbJ--0" value="Game" style="swimlane;fontStyle=2;align=center;verticalAlign=top;childLayout=stackLayout;horizontal=1;startSize=26;horizontalStack=0;resizeParent=1;resizeLast=0;collapsible=1;marginBottom=0;rounded=0;shadow=0;strokeWidth=1;" parent="WIyWlLk6GJQsqaUBKTNV-1" vertex="1">
          <mxGeometry x="-590" y="-390" width="290" height="420" as="geometry">
            <mxRectangle x="230" y="140" width="160" height="26" as="alternateBounds" />
          </mxGeometry>
        </mxCell>
        <mxCell id="zkfFHV4jXpPFQw0GAbJ--1" value="- GameState : enum&#xa;- m_currentState : GameState&#xa;- m_menuOption : int&#xa;- gt : GameTimer&#xa;+ instance : static Game&#xa;+ pDE : MyDrawEngine*&#xa;+ pSE : MySoundEngine*&#xa;+ pInputs : MyInputs*&#xa;&#xa;&#xa;assetManager : AssetManager&#xa;entityManager : EntityManager&#xa;levelManager : LevelManager&#xa;background : Entity*&#xa;player : Entity*&#xa;collidersMap: unordered_map&lt;int, vector&lt;Entity*&gt;&gt;" style="text;align=left;verticalAlign=top;spacingLeft=4;spacingRight=4;overflow=hidden;rotatable=0;points=[[0,0.5],[1,0.5]];portConstraint=eastwest;" parent="zkfFHV4jXpPFQw0GAbJ--0" vertex="1">
          <mxGeometry y="26" width="290" height="234" as="geometry" />
        </mxCell>
        <mxCell id="hyWr-eSX5F7U5Ll_7Sj7-1" value="" style="line;html=1;strokeWidth=1;align=left;verticalAlign=middle;spacingTop=-1;spacingLeft=3;spacingRight=3;rotatable=0;labelPosition=right;points=[];portConstraint=eastwest;" parent="zkfFHV4jXpPFQw0GAbJ--0" vertex="1">
          <mxGeometry y="260" width="290" height="8" as="geometry" />
        </mxCell>
        <mxCell id="hyWr-eSX5F7U5Ll_7Sj7-3" value="- ChangeState() : void&#xa;+ Setup() : ErrorType&#xa;+ Shutdown() : void&#xa;+ Main() : ErrorType&#xa;+ PauseMenu() : ErrorType&#xa;+ LevelMenu() : ErrorType&#xa;+ MainMenu() : ErrorType&#xa;+ StartOfGame(selectedLevel) : ErrorType&#xa;+ Update() : ErrorType&#xa;+ EndOfGame() : ErrorType" style="text;align=left;verticalAlign=top;spacingLeft=4;spacingRight=4;overflow=hidden;rotatable=0;points=[[0,0.5],[1,0.5]];portConstraint=eastwest;" parent="zkfFHV4jXpPFQw0GAbJ--0" vertex="1">
          <mxGeometry y="268" width="290" height="152" as="geometry" />
        </mxCell>
        <mxCell id="hyWr-eSX5F7U5Ll_7Sj7-4" value="EntityManager" style="swimlane;fontStyle=2;align=center;verticalAlign=top;childLayout=stackLayout;horizontal=1;startSize=26;horizontalStack=0;resizeParent=1;resizeLast=0;collapsible=1;marginBottom=0;rounded=0;shadow=0;strokeWidth=1;" parent="WIyWlLk6GJQsqaUBKTNV-1" vertex="1">
          <mxGeometry x="-220" y="-230" width="260" height="200" as="geometry">
            <mxRectangle x="230" y="140" width="160" height="26" as="alternateBounds" />
          </mxGeometry>
        </mxCell>
        <mxCell id="hyWr-eSX5F7U5Ll_7Sj7-5" value="- entities : vector&lt;unique_ptr&lt;Entity&gt;&gt;" style="text;align=left;verticalAlign=top;spacingLeft=4;spacingRight=4;overflow=hidden;rotatable=0;points=[[0,0.5],[1,0.5]];portConstraint=eastwest;" parent="hyWr-eSX5F7U5Ll_7Sj7-4" vertex="1">
          <mxGeometry y="26" width="260" height="34" as="geometry" />
        </mxCell>
        <mxCell id="hyWr-eSX5F7U5Ll_7Sj7-6" value="" style="line;html=1;strokeWidth=1;align=left;verticalAlign=middle;spacingTop=-1;spacingLeft=3;spacingRight=3;rotatable=0;labelPosition=right;points=[];portConstraint=eastwest;" parent="hyWr-eSX5F7U5Ll_7Sj7-4" vertex="1">
          <mxGeometry y="60" width="260" height="8" as="geometry" />
        </mxCell>
        <mxCell id="hyWr-eSX5F7U5Ll_7Sj7-7" value="+ update() : void&#xa;+ updateTime(frameTime) : void&#xa;+ deleteAll() : void&#xa;+ removeInactiveEntities() : void&#xa;+ addEntity(id, entityType) : Entity&amp;&#xa;+ addEntity(id, entityType, worldType) : Entity&amp;&#xa;+ getEntity(id) : Entity&amp;&#xa;+ getAllEntities() : entities" style="text;align=left;verticalAlign=top;spacingLeft=4;spacingRight=4;overflow=hidden;rotatable=0;points=[[0,0.5],[1,0.5]];portConstraint=eastwest;" parent="hyWr-eSX5F7U5Ll_7Sj7-4" vertex="1">
          <mxGeometry y="68" width="260" height="132" as="geometry" />
        </mxCell>
        <mxCell id="hyWr-eSX5F7U5Ll_7Sj7-8" value="Entity" style="swimlane;fontStyle=2;align=center;verticalAlign=top;childLayout=stackLayout;horizontal=1;startSize=26;horizontalStack=0;resizeParent=1;resizeLast=0;collapsible=1;marginBottom=0;rounded=0;shadow=0;strokeWidth=1;" parent="WIyWlLk6GJQsqaUBKTNV-1" vertex="1">
          <mxGeometry x="90" y="-230" width="276" height="380" as="geometry">
            <mxRectangle x="230" y="140" width="160" height="26" as="alternateBounds" />
          </mxGeometry>
        </mxCell>
        <mxCell id="hyWr-eSX5F7U5Ll_7Sj7-9" value="- entityManager : EntityManager&amp;&#xa;- active : bool&#xa;- id : int&#xa;- entityType : EntityType&#xa;- worldType : WorldType&#xa;- frameTime : double&#xa;- components : vector&lt;unique_ptr&lt;Component&gt;&gt;&#xa;- componentArray : ComponentArray&#xa;- componentBitset : ComponentBitset" style="text;align=left;verticalAlign=top;spacingLeft=4;spacingRight=4;overflow=hidden;rotatable=0;points=[[0,0.5],[1,0.5]];portConstraint=eastwest;" parent="hyWr-eSX5F7U5Ll_7Sj7-8" vertex="1">
          <mxGeometry y="26" width="276" height="134" as="geometry" />
        </mxCell>
        <mxCell id="hyWr-eSX5F7U5Ll_7Sj7-10" value="" style="line;html=1;strokeWidth=1;align=left;verticalAlign=middle;spacingTop=-1;spacingLeft=3;spacingRight=3;rotatable=0;labelPosition=right;points=[];portConstraint=eastwest;" parent="hyWr-eSX5F7U5Ll_7Sj7-8" vertex="1">
          <mxGeometry y="160" width="276" height="8" as="geometry" />
        </mxCell>
        <mxCell id="hyWr-eSX5F7U5Ll_7Sj7-11" value="+ Entity(entityManager, id, entityType)&#xa;+ Entity(entityManager, id, entityType, worldType)&#xa;+ update() : void&#xa;+ updateTime(frameTime) : void&#xa;+ isActive() : void&#xa;+ deleteEntity() : void&#xa;+ hasComponent&lt;typename T&gt;() : bool&#xa;+ addComponent&lt;typename T&gt;() : &amp;T&#xa;+ getComponent&lt;typename T&gt;() : &amp;T&#xa;+ getID() : int&#xa;+ getEntityType() : EntityType&#xa;+ setWorldType(worldType) : void&#xa;+ getWorldType() : WorldType&#xa;+ getGameTime() : double" style="text;align=left;verticalAlign=top;spacingLeft=4;spacingRight=4;overflow=hidden;rotatable=0;points=[[0,0.5],[1,0.5]];portConstraint=eastwest;" parent="hyWr-eSX5F7U5Ll_7Sj7-8" vertex="1">
          <mxGeometry y="168" width="276" height="212" as="geometry" />
        </mxCell>
        <mxCell id="hyWr-eSX5F7U5Ll_7Sj7-12" value="Component" style="swimlane;fontStyle=2;align=center;verticalAlign=top;childLayout=stackLayout;horizontal=1;startSize=26;horizontalStack=0;resizeParent=1;resizeLast=0;collapsible=1;marginBottom=0;rounded=0;shadow=0;strokeWidth=1;" parent="WIyWlLk6GJQsqaUBKTNV-1" vertex="1">
          <mxGeometry x="420" y="-230" width="180" height="140" as="geometry">
            <mxRectangle x="230" y="140" width="160" height="26" as="alternateBounds" />
          </mxGeometry>
        </mxCell>
        <mxCell id="hyWr-eSX5F7U5Ll_7Sj7-13" value="- active : bool&#xa;+ entity : Entity*" style="text;align=left;verticalAlign=top;spacingLeft=4;spacingRight=4;overflow=hidden;rotatable=0;points=[[0,0.5],[1,0.5]];portConstraint=eastwest;" parent="hyWr-eSX5F7U5Ll_7Sj7-12" vertex="1">
          <mxGeometry y="26" width="180" height="34" as="geometry" />
        </mxCell>
        <mxCell id="hyWr-eSX5F7U5Ll_7Sj7-14" value="" style="line;html=1;strokeWidth=1;align=left;verticalAlign=middle;spacingTop=-1;spacingLeft=3;spacingRight=3;rotatable=0;labelPosition=right;points=[];portConstraint=eastwest;" parent="hyWr-eSX5F7U5Ll_7Sj7-12" vertex="1">
          <mxGeometry y="60" width="180" height="8" as="geometry" />
        </mxCell>
        <mxCell id="hyWr-eSX5F7U5Ll_7Sj7-15" value="+ init() : virtual void&#xa;+ update() : virtual void&#xa;+ isActive() : bool&#xa;+ setActive(active) : void" style="text;align=left;verticalAlign=top;spacingLeft=4;spacingRight=4;overflow=hidden;rotatable=0;points=[[0,0.5],[1,0.5]];portConstraint=eastwest;" parent="hyWr-eSX5F7U5Ll_7Sj7-12" vertex="1">
          <mxGeometry y="68" width="180" height="72" as="geometry" />
        </mxCell>
        <mxCell id="hyWr-eSX5F7U5Ll_7Sj7-16" value="AssetManager" style="swimlane;fontStyle=2;align=center;verticalAlign=top;childLayout=stackLayout;horizontal=1;startSize=26;horizontalStack=0;resizeParent=1;resizeLast=0;collapsible=1;marginBottom=0;rounded=0;shadow=0;strokeWidth=1;" parent="WIyWlLk6GJQsqaUBKTNV-1" vertex="1">
          <mxGeometry x="345" y="-1030" width="390" height="380" as="geometry">
            <mxRectangle x="230" y="140" width="160" height="26" as="alternateBounds" />
          </mxGeometry>
        </mxCell>
        <mxCell id="hyWr-eSX5F7U5Ll_7Sj7-17" value="- pDE : MyDrawEngine*&#xa;- pSE : MySoundEngine*&#xa;- characterImagesMap : unordered_map&lt;const char*, PictureIndex&gt;&#xa;- characterSoundsMap : unordered_map&lt;const char*, SoundIndex&gt;&#xa;- backgroundImagesMap : unordered_map&lt;const char*, PictureIndex&gt;&#xa;- backgroundSoundMap : unordered_map&lt;const char*, SoundIndex&gt;&#xa;- worldImagesMap : unordered_map&lt;const char*, PictureIndex&gt;&#xa;- worldSoundsMap : unordered_map&lt;const char*, SoundIndex&gt;" style="text;align=left;verticalAlign=top;spacingLeft=4;spacingRight=4;overflow=hidden;rotatable=0;points=[[0,0.5],[1,0.5]];portConstraint=eastwest;" parent="hyWr-eSX5F7U5Ll_7Sj7-16" vertex="1">
          <mxGeometry y="26" width="390" height="124" as="geometry" />
        </mxCell>
        <mxCell id="hyWr-eSX5F7U5Ll_7Sj7-18" value="" style="line;html=1;strokeWidth=1;align=left;verticalAlign=middle;spacingTop=-1;spacingLeft=3;spacingRight=3;rotatable=0;labelPosition=right;points=[];portConstraint=eastwest;" parent="hyWr-eSX5F7U5Ll_7Sj7-16" vertex="1">
          <mxGeometry y="150" width="390" height="8" as="geometry" />
        </mxCell>
        <mxCell id="hyWr-eSX5F7U5Ll_7Sj7-19" value="+ init(pDE, pSE) : void&#xa;+ loadCharacterImage(file, name) : void&#xa;+ getCharacterImage(name) : PictureIndex&#xa;+ loadCharacterSound(file, name) : void&#xa;+ getCharacterSound(name) : SoundIndex&#xa;+ loadBackgroundImage(file, name) : void&#xa;+ getBackgroundImage(name) : PictureIndex&#xa;+ loadBackgroundSound(file, name) : void&#xa;+ getWorldSound(name) : SoundIndex&#xa;+ loadWorldImage(file, name) : void&#xa;+ getWorldImage(name) : PictureIndex&#xa;+ loadWorldSound(file, name) : void&#xa;+ getWorldSound(name) : SoundIndex&#xa;+ loadAll() : void&#xa;+ clearAll() : void" style="text;align=left;verticalAlign=top;spacingLeft=4;spacingRight=4;overflow=hidden;rotatable=0;points=[[0,0.5],[1,0.5]];portConstraint=eastwest;" parent="hyWr-eSX5F7U5Ll_7Sj7-16" vertex="1">
          <mxGeometry y="158" width="390" height="212" as="geometry" />
        </mxCell>
        <mxCell id="hyWr-eSX5F7U5Ll_7Sj7-20" value="LevelManager" style="swimlane;fontStyle=2;align=center;verticalAlign=top;childLayout=stackLayout;horizontal=1;startSize=26;horizontalStack=0;resizeParent=1;resizeLast=0;collapsible=1;marginBottom=0;rounded=0;shadow=0;strokeWidth=1;" parent="WIyWlLk6GJQsqaUBKTNV-1" vertex="1">
          <mxGeometry x="-240" y="-480" width="300" height="210" as="geometry">
            <mxRectangle x="230" y="140" width="160" height="26" as="alternateBounds" />
          </mxGeometry>
        </mxCell>
        <mxCell id="hyWr-eSX5F7U5Ll_7Sj7-21" value="- currentLevel : Levels&#xa;- levelFile : const char*&#xa;- startPosition : Vector2D&#xa;- tileSize : int&#xa;- levelWidth : int&#xa;- levelHeight : int&#xa;- collidersMap: unordered_map&lt;int, vector&lt;Entity*&gt;&gt;" style="text;align=left;verticalAlign=top;spacingLeft=4;spacingRight=4;overflow=hidden;rotatable=0;points=[[0,0.5],[1,0.5]];portConstraint=eastwest;" parent="hyWr-eSX5F7U5Ll_7Sj7-20" vertex="1">
          <mxGeometry y="26" width="300" height="114" as="geometry" />
        </mxCell>
        <mxCell id="hyWr-eSX5F7U5Ll_7Sj7-22" value="" style="line;html=1;strokeWidth=1;align=left;verticalAlign=middle;spacingTop=-1;spacingLeft=3;spacingRight=3;rotatable=0;labelPosition=right;points=[];portConstraint=eastwest;" parent="hyWr-eSX5F7U5Ll_7Sj7-20" vertex="1">
          <mxGeometry y="140" width="300" height="8" as="geometry" />
        </mxCell>
        <mxCell id="hyWr-eSX5F7U5Ll_7Sj7-23" value="+ init(selectedLevel) : void&#xa;+ loadLevel(pEM, pDE, pAM) : void&#xa;+ getCollidersMap : collidersMap" style="text;align=left;verticalAlign=top;spacingLeft=4;spacingRight=4;overflow=hidden;rotatable=0;points=[[0,0.5],[1,0.5]];portConstraint=eastwest;" parent="hyWr-eSX5F7U5Ll_7Sj7-20" vertex="1">
          <mxGeometry y="148" width="300" height="62" as="geometry" />
        </mxCell>
        <mxCell id="hyWr-eSX5F7U5Ll_7Sj7-24" value="MyDrawEngine" style="swimlane;fontStyle=2;align=center;verticalAlign=top;childLayout=stackLayout;horizontal=1;startSize=26;horizontalStack=0;resizeParent=1;resizeLast=0;collapsible=1;marginBottom=0;rounded=0;shadow=0;strokeWidth=1;" parent="WIyWlLk6GJQsqaUBKTNV-1" vertex="1">
          <mxGeometry x="-300" y="-1140" width="220" height="460" as="geometry">
            <mxRectangle x="230" y="140" width="160" height="26" as="alternateBounds" />
          </mxGeometry>
        </mxCell>
        <mxCell id="hyWr-eSX5F7U5Ll_7Sj7-25" value="- variables" style="text;align=left;verticalAlign=top;spacingLeft=4;spacingRight=4;overflow=hidden;rotatable=0;points=[[0,0.5],[1,0.5]];portConstraint=eastwest;" parent="hyWr-eSX5F7U5Ll_7Sj7-24" vertex="1">
          <mxGeometry y="26" width="220" height="264" as="geometry" />
        </mxCell>
        <mxCell id="hyWr-eSX5F7U5Ll_7Sj7-26" value="" style="line;html=1;strokeWidth=1;align=left;verticalAlign=middle;spacingTop=-1;spacingLeft=3;spacingRight=3;rotatable=0;labelPosition=right;points=[];portConstraint=eastwest;" parent="hyWr-eSX5F7U5Ll_7Sj7-24" vertex="1">
          <mxGeometry y="290" width="220" height="8" as="geometry" />
        </mxCell>
        <mxCell id="hyWr-eSX5F7U5Ll_7Sj7-27" value="+ methods" style="text;align=left;verticalAlign=top;spacingLeft=4;spacingRight=4;overflow=hidden;rotatable=0;points=[[0,0.5],[1,0.5]];portConstraint=eastwest;" parent="hyWr-eSX5F7U5Ll_7Sj7-24" vertex="1">
          <mxGeometry y="298" width="220" height="152" as="geometry" />
        </mxCell>
        <mxCell id="hyWr-eSX5F7U5Ll_7Sj7-28" value="MySoundEngine" style="swimlane;fontStyle=2;align=center;verticalAlign=top;childLayout=stackLayout;horizontal=1;startSize=26;horizontalStack=0;resizeParent=1;resizeLast=0;collapsible=1;marginBottom=0;rounded=0;shadow=0;strokeWidth=1;" parent="WIyWlLk6GJQsqaUBKTNV-1" vertex="1">
          <mxGeometry x="-550" y="-1140" width="220" height="460" as="geometry">
            <mxRectangle x="230" y="140" width="160" height="26" as="alternateBounds" />
          </mxGeometry>
        </mxCell>
        <mxCell id="hyWr-eSX5F7U5Ll_7Sj7-29" value="- variables" style="text;align=left;verticalAlign=top;spacingLeft=4;spacingRight=4;overflow=hidden;rotatable=0;points=[[0,0.5],[1,0.5]];portConstraint=eastwest;" parent="hyWr-eSX5F7U5Ll_7Sj7-28" vertex="1">
          <mxGeometry y="26" width="220" height="264" as="geometry" />
        </mxCell>
        <mxCell id="hyWr-eSX5F7U5Ll_7Sj7-30" value="" style="line;html=1;strokeWidth=1;align=left;verticalAlign=middle;spacingTop=-1;spacingLeft=3;spacingRight=3;rotatable=0;labelPosition=right;points=[];portConstraint=eastwest;" parent="hyWr-eSX5F7U5Ll_7Sj7-28" vertex="1">
          <mxGeometry y="290" width="220" height="8" as="geometry" />
        </mxCell>
        <mxCell id="hyWr-eSX5F7U5Ll_7Sj7-31" value="+ methods" style="text;align=left;verticalAlign=top;spacingLeft=4;spacingRight=4;overflow=hidden;rotatable=0;points=[[0,0.5],[1,0.5]];portConstraint=eastwest;" parent="hyWr-eSX5F7U5Ll_7Sj7-28" vertex="1">
          <mxGeometry y="298" width="220" height="152" as="geometry" />
        </mxCell>
        <mxCell id="hyWr-eSX5F7U5Ll_7Sj7-32" value="MyInputs" style="swimlane;fontStyle=2;align=center;verticalAlign=top;childLayout=stackLayout;horizontal=1;startSize=26;horizontalStack=0;resizeParent=1;resizeLast=0;collapsible=1;marginBottom=0;rounded=0;shadow=0;strokeWidth=1;" parent="WIyWlLk6GJQsqaUBKTNV-1" vertex="1">
          <mxGeometry x="-790" y="-1140" width="220" height="460" as="geometry">
            <mxRectangle x="230" y="140" width="160" height="26" as="alternateBounds" />
          </mxGeometry>
        </mxCell>
        <mxCell id="hyWr-eSX5F7U5Ll_7Sj7-33" value="- variables" style="text;align=left;verticalAlign=top;spacingLeft=4;spacingRight=4;overflow=hidden;rotatable=0;points=[[0,0.5],[1,0.5]];portConstraint=eastwest;" parent="hyWr-eSX5F7U5Ll_7Sj7-32" vertex="1">
          <mxGeometry y="26" width="220" height="264" as="geometry" />
        </mxCell>
        <mxCell id="hyWr-eSX5F7U5Ll_7Sj7-34" value="" style="line;html=1;strokeWidth=1;align=left;verticalAlign=middle;spacingTop=-1;spacingLeft=3;spacingRight=3;rotatable=0;labelPosition=right;points=[];portConstraint=eastwest;" parent="hyWr-eSX5F7U5Ll_7Sj7-32" vertex="1">
          <mxGeometry y="290" width="220" height="8" as="geometry" />
        </mxCell>
        <mxCell id="hyWr-eSX5F7U5Ll_7Sj7-35" value="+ methods" style="text;align=left;verticalAlign=top;spacingLeft=4;spacingRight=4;overflow=hidden;rotatable=0;points=[[0,0.5],[1,0.5]];portConstraint=eastwest;" parent="hyWr-eSX5F7U5Ll_7Sj7-32" vertex="1">
          <mxGeometry y="298" width="220" height="152" as="geometry" />
        </mxCell>
        <mxCell id="NfOoJehiI39G_Mf50VDs-0" value="Levels : enum" style="swimlane;fontStyle=0;childLayout=stackLayout;horizontal=1;startSize=30;horizontalStack=0;resizeParent=1;resizeParentMax=0;resizeLast=0;collapsible=1;marginBottom=0;whiteSpace=wrap;html=1;" parent="WIyWlLk6GJQsqaUBKTNV-1" vertex="1">
          <mxGeometry x="80" y="-910" width="150" height="80" as="geometry" />
        </mxCell>
        <mxCell id="NfOoJehiI39G_Mf50VDs-1" value="Level0&lt;br&gt;Level1&lt;br&gt;Level2" style="text;strokeColor=none;fillColor=none;align=left;verticalAlign=middle;spacingLeft=4;spacingRight=4;overflow=hidden;points=[[0,0.5],[1,0.5]];portConstraint=eastwest;rotatable=0;whiteSpace=wrap;html=1;" parent="NfOoJehiI39G_Mf50VDs-0" vertex="1">
          <mxGeometry y="30" width="150" height="50" as="geometry" />
        </mxCell>
        <mxCell id="NfOoJehiI39G_Mf50VDs-4" value="EntityType : enum" style="swimlane;fontStyle=0;childLayout=stackLayout;horizontal=1;startSize=30;horizontalStack=0;resizeParent=1;resizeParentMax=0;resizeLast=0;collapsible=1;marginBottom=0;whiteSpace=wrap;html=1;" parent="WIyWlLk6GJQsqaUBKTNV-1" vertex="1">
          <mxGeometry x="80" y="-810" width="150" height="80" as="geometry" />
        </mxCell>
        <mxCell id="NfOoJehiI39G_Mf50VDs-5" value="Character&lt;br&gt;Background&lt;br&gt;World" style="text;strokeColor=none;fillColor=none;align=left;verticalAlign=top;spacingLeft=4;spacingRight=4;overflow=hidden;points=[[0,0.5],[1,0.5]];portConstraint=eastwest;rotatable=0;whiteSpace=wrap;html=1;" parent="NfOoJehiI39G_Mf50VDs-4" vertex="1">
          <mxGeometry y="30" width="150" height="50" as="geometry" />
        </mxCell>
        <mxCell id="NfOoJehiI39G_Mf50VDs-7" value="WorldType : enum" style="swimlane;fontStyle=0;childLayout=stackLayout;horizontal=1;startSize=30;horizontalStack=0;resizeParent=1;resizeParentMax=0;resizeLast=0;collapsible=1;marginBottom=0;whiteSpace=wrap;html=1;" parent="WIyWlLk6GJQsqaUBKTNV-1" vertex="1">
          <mxGeometry x="80" y="-690" width="150" height="170" as="geometry" />
        </mxCell>
        <mxCell id="NfOoJehiI39G_Mf50VDs-8" value="NOTworld&lt;br&gt;Empty&lt;br&gt;Platform&lt;br&gt;TrappedPlatform&lt;br&gt;Trap&lt;br&gt;DestroyedEdge&lt;br&gt;Destroyed&lt;br&gt;Exit&lt;br&gt;Point" style="text;strokeColor=none;fillColor=none;align=left;verticalAlign=top;spacingLeft=4;spacingRight=4;overflow=hidden;points=[[0,0.5],[1,0.5]];portConstraint=eastwest;rotatable=0;whiteSpace=wrap;html=1;" parent="NfOoJehiI39G_Mf50VDs-7" vertex="1">
          <mxGeometry y="30" width="150" height="140" as="geometry" />
        </mxCell>
        <mxCell id="oK6ALUC8_1bTwZKm4liI-0" value="TransformComponent" style="swimlane;fontStyle=2;align=center;verticalAlign=top;childLayout=stackLayout;horizontal=1;startSize=26;horizontalStack=0;resizeParent=1;resizeLast=0;collapsible=1;marginBottom=0;rounded=0;shadow=0;strokeWidth=1;" parent="WIyWlLk6GJQsqaUBKTNV-1" vertex="1">
          <mxGeometry x="160" y="220" width="180" height="230" as="geometry">
            <mxRectangle x="230" y="140" width="160" height="26" as="alternateBounds" />
          </mxGeometry>
        </mxCell>
        <mxCell id="oK6ALUC8_1bTwZKm4liI-1" value="- position : Vector2D&#xa;- angle : float&#xa;- scale : float" style="text;align=left;verticalAlign=top;spacingLeft=4;spacingRight=4;overflow=hidden;rotatable=0;points=[[0,0.5],[1,0.5]];portConstraint=eastwest;" parent="oK6ALUC8_1bTwZKm4liI-0" vertex="1">
          <mxGeometry y="26" width="180" height="54" as="geometry" />
        </mxCell>
        <mxCell id="oK6ALUC8_1bTwZKm4liI-2" value="" style="line;html=1;strokeWidth=1;align=left;verticalAlign=middle;spacingTop=-1;spacingLeft=3;spacingRight=3;rotatable=0;labelPosition=right;points=[];portConstraint=eastwest;" parent="oK6ALUC8_1bTwZKm4liI-0" vertex="1">
          <mxGeometry y="80" width="180" height="8" as="geometry" />
        </mxCell>
        <mxCell id="oK6ALUC8_1bTwZKm4liI-3" value="+ getPosition() : position&#xa;+ setPosition(position) : void&#xa;+ addPosition(Vector2D) :void&#xa;+ getRotation() : angle&#xa;+ setRotation(angle) : void&#xa;+ addRotation(float) : void&#xa;+ getScale() : scale&#xa;+ setScale(scale) : void&#xa;+ addScale(float) : void" style="text;align=left;verticalAlign=top;spacingLeft=4;spacingRight=4;overflow=hidden;rotatable=0;points=[[0,0.5],[1,0.5]];portConstraint=eastwest;" parent="oK6ALUC8_1bTwZKm4liI-0" vertex="1">
          <mxGeometry y="88" width="180" height="132" as="geometry" />
        </mxCell>
        <mxCell id="oK6ALUC8_1bTwZKm4liI-4" value="ImageComponent" style="swimlane;fontStyle=2;align=center;verticalAlign=top;childLayout=stackLayout;horizontal=1;startSize=26;horizontalStack=0;resizeParent=1;resizeLast=0;collapsible=1;marginBottom=0;rounded=0;shadow=0;strokeWidth=1;" parent="WIyWlLk6GJQsqaUBKTNV-1" vertex="1">
          <mxGeometry x="380" y="220" width="180" height="150" as="geometry">
            <mxRectangle x="230" y="140" width="160" height="26" as="alternateBounds" />
          </mxGeometry>
        </mxCell>
        <mxCell id="oK6ALUC8_1bTwZKm4liI-5" value="- pAM : AssetManager*&#xa;- pDE : MySoundEngine*&#xa;- pTC : TransformComponent*&#xa;- image : PictureIndex" style="text;align=left;verticalAlign=top;spacingLeft=4;spacingRight=4;overflow=hidden;rotatable=0;points=[[0,0.5],[1,0.5]];portConstraint=eastwest;" parent="oK6ALUC8_1bTwZKm4liI-4" vertex="1">
          <mxGeometry y="26" width="180" height="74" as="geometry" />
        </mxCell>
        <mxCell id="oK6ALUC8_1bTwZKm4liI-6" value="" style="line;html=1;strokeWidth=1;align=left;verticalAlign=middle;spacingTop=-1;spacingLeft=3;spacingRight=3;rotatable=0;labelPosition=right;points=[];portConstraint=eastwest;" parent="oK6ALUC8_1bTwZKm4liI-4" vertex="1">
          <mxGeometry y="100" width="180" height="8" as="geometry" />
        </mxCell>
        <mxCell id="oK6ALUC8_1bTwZKm4liI-7" value="+ setImage(const char*) : image&#xa;+ draw() : void" style="text;align=left;verticalAlign=top;spacingLeft=4;spacingRight=4;overflow=hidden;rotatable=0;points=[[0,0.5],[1,0.5]];portConstraint=eastwest;" parent="oK6ALUC8_1bTwZKm4liI-4" vertex="1">
          <mxGeometry y="108" width="180" height="42" as="geometry" />
        </mxCell>
        <mxCell id="wwe1UTZtVgOhbe7iOGok-0" value="SoundComponent" style="swimlane;fontStyle=2;align=center;verticalAlign=top;childLayout=stackLayout;horizontal=1;startSize=26;horizontalStack=0;resizeParent=1;resizeLast=0;collapsible=1;marginBottom=0;rounded=0;shadow=0;strokeWidth=1;" vertex="1" parent="WIyWlLk6GJQsqaUBKTNV-1">
          <mxGeometry x="600" y="220" width="190" height="130" as="geometry">
            <mxRectangle x="230" y="140" width="160" height="26" as="alternateBounds" />
          </mxGeometry>
        </mxCell>
        <mxCell id="wwe1UTZtVgOhbe7iOGok-1" value="- pAM : AssetManager*&#xa;- pSE : MySoundEngine*&#xa;- sound : SoundIndex" style="text;align=left;verticalAlign=top;spacingLeft=4;spacingRight=4;overflow=hidden;rotatable=0;points=[[0,0.5],[1,0.5]];portConstraint=eastwest;" vertex="1" parent="wwe1UTZtVgOhbe7iOGok-0">
          <mxGeometry y="26" width="190" height="54" as="geometry" />
        </mxCell>
        <mxCell id="wwe1UTZtVgOhbe7iOGok-2" value="" style="line;html=1;strokeWidth=1;align=left;verticalAlign=middle;spacingTop=-1;spacingLeft=3;spacingRight=3;rotatable=0;labelPosition=right;points=[];portConstraint=eastwest;" vertex="1" parent="wwe1UTZtVgOhbe7iOGok-0">
          <mxGeometry y="80" width="190" height="8" as="geometry" />
        </mxCell>
        <mxCell id="wwe1UTZtVgOhbe7iOGok-3" value="+ setSound(const char*) :  sound&#xa;+ play() : void" style="text;align=left;verticalAlign=top;spacingLeft=4;spacingRight=4;overflow=hidden;rotatable=0;points=[[0,0.5],[1,0.5]];portConstraint=eastwest;" vertex="1" parent="wwe1UTZtVgOhbe7iOGok-0">
          <mxGeometry y="88" width="190" height="42" as="geometry" />
        </mxCell>
        <mxCell id="wwe1UTZtVgOhbe7iOGok-4" value="InputComponent" style="swimlane;fontStyle=2;align=center;verticalAlign=top;childLayout=stackLayout;horizontal=1;startSize=26;horizontalStack=0;resizeParent=1;resizeLast=0;collapsible=1;marginBottom=0;rounded=0;shadow=0;strokeWidth=1;" vertex="1" parent="WIyWlLk6GJQsqaUBKTNV-1">
          <mxGeometry x="160" y="480" width="170" height="110" as="geometry">
            <mxRectangle x="230" y="140" width="160" height="26" as="alternateBounds" />
          </mxGeometry>
        </mxCell>
        <mxCell id="wwe1UTZtVgOhbe7iOGok-5" value="- pInputs : myInputs*&#xa;- pPC : PhysicsComponent*" style="text;align=left;verticalAlign=top;spacingLeft=4;spacingRight=4;overflow=hidden;rotatable=0;points=[[0,0.5],[1,0.5]];portConstraint=eastwest;" vertex="1" parent="wwe1UTZtVgOhbe7iOGok-4">
          <mxGeometry y="26" width="170" height="44" as="geometry" />
        </mxCell>
        <mxCell id="wwe1UTZtVgOhbe7iOGok-6" value="" style="line;html=1;strokeWidth=1;align=left;verticalAlign=middle;spacingTop=-1;spacingLeft=3;spacingRight=3;rotatable=0;labelPosition=right;points=[];portConstraint=eastwest;" vertex="1" parent="wwe1UTZtVgOhbe7iOGok-4">
          <mxGeometry y="70" width="170" height="8" as="geometry" />
        </mxCell>
        <mxCell id="wwe1UTZtVgOhbe7iOGok-7" value="+ checkForInputs() : void" style="text;align=left;verticalAlign=top;spacingLeft=4;spacingRight=4;overflow=hidden;rotatable=0;points=[[0,0.5],[1,0.5]];portConstraint=eastwest;" vertex="1" parent="wwe1UTZtVgOhbe7iOGok-4">
          <mxGeometry y="78" width="170" height="32" as="geometry" />
        </mxCell>
        <mxCell id="wwe1UTZtVgOhbe7iOGok-8" value="GameComponent" style="swimlane;fontStyle=2;align=center;verticalAlign=top;childLayout=stackLayout;horizontal=1;startSize=26;horizontalStack=0;resizeParent=1;resizeLast=0;collapsible=1;marginBottom=0;rounded=0;shadow=0;strokeWidth=1;" vertex="1" parent="WIyWlLk6GJQsqaUBKTNV-1">
          <mxGeometry x="380" y="480" width="160" height="190" as="geometry">
            <mxRectangle x="230" y="140" width="160" height="26" as="alternateBounds" />
          </mxGeometry>
        </mxCell>
        <mxCell id="wwe1UTZtVgOhbe7iOGok-9" value="- win : bool&#xa;- lose : bool&#xa;- score : int" style="text;align=left;verticalAlign=top;spacingLeft=4;spacingRight=4;overflow=hidden;rotatable=0;points=[[0,0.5],[1,0.5]];portConstraint=eastwest;" vertex="1" parent="wwe1UTZtVgOhbe7iOGok-8">
          <mxGeometry y="26" width="160" height="54" as="geometry" />
        </mxCell>
        <mxCell id="wwe1UTZtVgOhbe7iOGok-10" value="" style="line;html=1;strokeWidth=1;align=left;verticalAlign=middle;spacingTop=-1;spacingLeft=3;spacingRight=3;rotatable=0;labelPosition=right;points=[];portConstraint=eastwest;" vertex="1" parent="wwe1UTZtVgOhbe7iOGok-8">
          <mxGeometry y="80" width="160" height="8" as="geometry" />
        </mxCell>
        <mxCell id="wwe1UTZtVgOhbe7iOGok-11" value="+ getWin() : win&#xa;+ setWin(win) : void&#xa;+ getLose() : lose&#xa;+ setLose(lose) : void&#xa;+ getScore() : score&#xa;+ increaseScore() : void" style="text;align=left;verticalAlign=top;spacingLeft=4;spacingRight=4;overflow=hidden;rotatable=0;points=[[0,0.5],[1,0.5]];portConstraint=eastwest;" vertex="1" parent="wwe1UTZtVgOhbe7iOGok-8">
          <mxGeometry y="88" width="160" height="102" as="geometry" />
        </mxCell>
        <mxCell id="wwe1UTZtVgOhbe7iOGok-12" value="PhysicsComponent" style="swimlane;fontStyle=2;align=center;verticalAlign=top;childLayout=stackLayout;horizontal=1;startSize=26;horizontalStack=0;resizeParent=1;resizeLast=0;collapsible=1;marginBottom=0;rounded=0;shadow=0;strokeWidth=1;" vertex="1" parent="WIyWlLk6GJQsqaUBKTNV-1">
          <mxGeometry x="600" y="480" width="220" height="290" as="geometry">
            <mxRectangle x="230" y="140" width="160" height="26" as="alternateBounds" />
          </mxGeometry>
        </mxCell>
        <mxCell id="wwe1UTZtVgOhbe7iOGok-13" value="- pTC : TransformComponent*&#xa;- position : Vector2D&#xa;- velocity : Vector2D&#xa;- acceleration : Vector2D&#xa;- impulseTime : double&#xa;- movementSpeed : float&#xa;- jumpSpeed : float&#xa;- gravity : float&#xa;- jumpReady : bool&#xa;-  frameTime : double" style="text;align=left;verticalAlign=top;spacingLeft=4;spacingRight=4;overflow=hidden;rotatable=0;points=[[0,0.5],[1,0.5]];portConstraint=eastwest;" vertex="1" parent="wwe1UTZtVgOhbe7iOGok-12">
          <mxGeometry y="26" width="220" height="164" as="geometry" />
        </mxCell>
        <mxCell id="wwe1UTZtVgOhbe7iOGok-14" value="" style="line;html=1;strokeWidth=1;align=left;verticalAlign=middle;spacingTop=-1;spacingLeft=3;spacingRight=3;rotatable=0;labelPosition=right;points=[];portConstraint=eastwest;" vertex="1" parent="wwe1UTZtVgOhbe7iOGok-12">
          <mxGeometry y="190" width="220" height="8" as="geometry" />
        </mxCell>
        <mxCell id="wwe1UTZtVgOhbe7iOGok-16" value="+ update() : void&#xa;+ moveLeft() : void&#xa;+ moveRight() : void&#xa;+ jump() : void&#xa;+ bounceBack() : void" style="text;align=left;verticalAlign=top;spacingLeft=4;spacingRight=4;overflow=hidden;rotatable=0;points=[[0,0.5],[1,0.5]];portConstraint=eastwest;" vertex="1" parent="wwe1UTZtVgOhbe7iOGok-12">
          <mxGeometry y="198" width="220" height="92" as="geometry" />
        </mxCell>
      </root>
    </mxGraphModel>
  </diagram>
</mxfile>
